<?xml version="1.0" encoding="utf-8"?>
<!-- Generator: Adobe Illustrator 28.3.0, SVG Export Plug-In . SVG Version: 6.00 Build 0)  -->
<svg version="1.1" id="Capa_1" xmlns="http://www.w3.org/2000/svg" xmlns:xlink="http://www.w3.org/1999/xlink" x="0px" y="0px"
	 width="260px" height="40px" viewBox="0 0 260 40" style="enable-background:new 0 0 260 40;" xml:space="preserve">
<g>
	<path d="M22.6,14.8l-1.2,0L16,14.9l-1.7,0l0.1-4.8l7.7,0.1h0.1c0.5,0,0.7-0.2,0.7-0.5c0-0.3-0.1-0.5-0.4-0.5c-0.1,0-0.5,0-1.2,0H5
		l0.1,9.6L5,30.1h9.4v-0.7l-0.1-9.8l0-3.7l7.1,0l1.2,0c0.7,0,1-0.2,1-0.6c0-0.2-0.1-0.4-0.2-0.4C23.3,14.8,23,14.8,22.6,14.8z"/>
	<path d="M40.4,9.5c-1.5-0.7-3.1-1-4.7-1c-1.7,0-3.3,0.4-4.7,1c-2.2,1-3.9,2.6-5,4.7c-0.9,1.7-1.4,3.5-1.4,5.4c0,1.5,0.3,3,0.9,4.4
		c1,2.3,2.6,4.1,4.8,5.4c1.7,1,3.5,1.4,5.4,1.4c1.8,0,3.5-0.4,5.2-1.3c2.2-1.2,3.9-2.9,4.9-5.1c0.7-1.5,1.1-3,1.1-4.6
		c0-2-0.5-3.8-1.4-5.5C44.3,12.1,42.6,10.5,40.4,9.5z M45.1,23.5c-0.7,1.8-1.9,3.3-3.5,4.4c-1.8,1.3-3.8,1.9-6.1,1.9
		c-0.3,0-0.7,0-1-0.1l0-1.9l-0.1-8.3l0.1-10c0.4-0.1,0.7-0.1,1.1-0.1c1.6,0,3.1,0.3,4.5,1c1.9,0.9,3.4,2.3,4.5,4.2
		c0.9,1.5,1.3,3.2,1.3,5C45.9,20.9,45.6,22.3,45.1,23.5z"/>
	<path d="M67.3,9.7c0-0.3-0.1-0.4-0.3-0.5c-0.1-0.1-0.5-0.1-1.2-0.1H46.9c-0.4,0-0.7,0-0.8,0c-0.3,0-0.4,0.2-0.4,0.6
		c0,0.4,0.2,0.6,0.7,0.6l0.4,0l2.9-0.1l2,0l0,3.5l0,4.2l-0.1,12.3h9.4l0-10.6l0-4.6l0.1-4.8h0.3l3.5,0.1l1.3,0
		C67,10.2,67.3,10.1,67.3,9.7z"/>
	<path d="M82.1,9.5c-1.5-0.7-3.1-1-4.7-1c-1.7,0-3.3,0.4-4.7,1c-2.2,1-3.9,2.6-5,4.7c-0.9,1.7-1.4,3.5-1.4,5.4c0,1.5,0.3,3,0.9,4.4
		c1,2.3,2.6,4.1,4.8,5.4c1.7,1,3.5,1.4,5.4,1.4c1.8,0,3.5-0.4,5.2-1.3c2.2-1.2,3.9-2.9,4.9-5.1c0.7-1.5,1.1-3,1.1-4.6
		c0-2-0.5-3.8-1.4-5.5C86,12.1,84.3,10.5,82.1,9.5z M86.8,23.5c-0.7,1.8-1.9,3.3-3.5,4.4c-1.8,1.3-3.8,1.9-6.1,1.9
		c-0.3,0-0.7,0-1-0.1l0-1.9l-0.1-8.3l0.1-10c0.4-0.1,0.7-0.1,1.1-0.1c1.6,0,3.1,0.3,4.5,1c1.9,0.9,3.4,2.3,4.5,4.2
		c0.9,1.5,1.3,3.2,1.3,5C87.6,20.9,87.3,22.3,86.8,23.5z"/>
	<path d="M117.3,24.9l-1.5-5.1l-3.4-11.5l-8.1,12.2L95.9,8.4l-3.3,11.1L91,25.1l-1,3.3c-0.3,0.9-0.4,1.5-0.4,1.6
		c0,0.3,0.2,0.5,0.7,0.5c0.4,0,0.6-0.1,0.7-0.3c0.1-0.2,0.3-1,0.6-2.2c0.7-3.2,1.4-5.9,2.1-8.2l6.5,9.1l6.4-9.6l2.9,10.9h9.4
		l-0.2-0.6L117.3,24.9z"/>
	<path d="M132.1,9.9l-9.3,15.7c-1.2,2-1.9,3.2-2.1,3.6c-0.2,0.4-0.3,0.6-0.3,0.7c0,0.3,0.2,0.5,0.5,0.5c0.2,0,0.3-0.1,0.4-0.2
		c0.1-0.1,0.3-0.5,0.6-1.1l1-1.9l0.8,0l4.5,0h5.2l1.5,2.8h10.7L133.3,7.8L132.1,9.9z M128.3,26.3l-4.6-0.1l2.2-3.7l2.7-4.5l4.4,8.3
		L128.3,26.3z"/>
	<path d="M164.4,9.2c-0.1-0.1-0.5-0.1-1.2-0.1h-18.9c-0.4,0-0.7,0-0.8,0c-0.3,0-0.4,0.2-0.4,0.6c0,0.4,0.2,0.6,0.7,0.6l0.4,0
		l2.9-0.1l2,0l0,3.5l0,4.2l-0.1,12.3h9.4l0-10.6l0-4.6l0.1-4.8h0.3l3.5,0.1l1.3,0c0.5,0,0.8-0.2,0.8-0.5
		C164.7,9.5,164.6,9.3,164.4,9.2z"/>
	<path d="M231.9,8.8c-0.2,0-0.4,0.1-0.5,0.2c-0.1,0.1-0.2,0.4-0.4,0.9c-1.1,2.9-2.4,6.3-4.1,10.3c-1.4-2.4-2.8-4.8-4.1-7.3l-2.3-4.4
		c-0.2,0.3-0.3,0.6-0.5,1l-1.2,2.2l-0.7,1.3l-1,2l-2.9,5.2c-0.8-1.7-1.9-4.2-3.2-7.6l-1.3-3.4H200l0.1,0.2c1.2,2.5,2.5,5.4,3.7,8.6
		l2.6,6.4l3,7.3l0.7-1.4l3.6-6.7l2.4-4.3l3,5.3l3.8,7.1l7.6-17.3l0.9-2c0.8-1.8,1.2-2.8,1.2-2.9c0-0.1-0.1-0.3-0.2-0.4
		C232.3,8.9,232.1,8.8,231.9,8.8z"/>
	<path d="M254.9,9c-0.1-0.1-0.2-0.2-0.5-0.2c-0.4,0-0.6,0.3-0.6,0.8l0,1.2l0,1.9l0,4.1v2.6c-8.6-4.8-15-8.5-19.2-11.1l0.1,10.6
		l-0.1,7.9l0,1.7l0,1.1c0,0.5,0.2,0.8,0.6,0.8c0.4,0,0.6-0.2,0.6-0.7l0-1.1l-0.2-7.9l0-0.8c2.5,1.3,5.8,3.2,9.9,5.5
		c4.1,2.3,7.2,4.2,9.3,5.5l-0.1-5l0-5l0-4.8L255,11c0-0.5,0-0.8,0-1.1V9.7C255,9.4,255,9.1,254.9,9z"/>
	<polygon points="169.8,30.9 178.3,35.2 178.3,4.8 169.8,8.5 	"/>
	<path d="M180.1,35.2l14.9-4.2V8.5l-14.9-3.6V35.2z M189.3,12.2l4.8,0.8v17l-4.1-1.1v2.2l-0.7,0.2V12.2z M182.2,10.9l4.8,0.8V21
		l-4.8,0.2V10.9z"/>
</g>
</svg>
