<?xml version="1.0" encoding="utf-8"?>
<!-- Generator: Adobe Illustrator 28.3.0, SVG Export Plug-In . SVG Version: 6.00 Build 0)  -->
<svg version="1.1" id="Capa_1" xmlns="http://www.w3.org/2000/svg" xmlns:xlink="http://www.w3.org/1999/xlink" x="0px" y="0px"
	 width="500px" height="115px" viewBox="0 0 500 115" style="enable-background:new 0 0 500 115;" xml:space="preserve">
<style type="text/css">
	.st0{opacity:0.93;fill:#363132;}
	.st1{fill:#231F20;}
</style>
<g>
	<g>
		<polygon class="st0" points="17.1,77.5 17.1,16.9 19.2,16.9 19.2,15 27.3,15 27.3,16.9 29.5,16.9 29.5,10.8 29.5,10.5 32,10.5 
			32,10.8 32,16.9 34.3,16.9 34.3,73.4 40.3,73.4 40.3,42.3 63.4,42.3 63.4,77.5 70.8,77.5 70.8,51.6 83.3,49.3 83.3,32 84.7,32 
			84.7,30.9 93.7,30.9 93.7,32 95.2,32 95.2,47.1 98.1,46.6 98.1,23.7 106.7,23.7 106.7,19.6 107.8,19.6 107.8,23.7 110,23.7 
			110,44.4 113.4,43.8 113.4,68.3 120.8,68.3 120.8,42.3 124.7,43.7 124.7,40.9 127.1,40.9 127.1,44.5 128.1,44.8 128.1,38.2 
			130.3,38.2 130.3,45.5 130.9,45.7 130.9,68.3 133.3,68.3 133.3,52.7 135.2,52.7 135.2,51.3 138.7,51.3 138.7,52.7 139.7,52.7 
			139.7,49.8 142.6,49.8 142.6,52.7 143.4,52.7 143.4,77.5 148.5,77.5 148.5,68.4 152.7,68.4 152.7,65.2 156.1,64.1 156.1,57 
			159.1,57 159.1,63.2 164.1,61.7 164.1,58.1 169.8,58.1 169.8,56.2 174.7,56.2 174.7,58.1 175.5,58.1 175.5,68.4 177.7,68.4 
			177.7,51.6 181.3,48.1 181.3,68.4 188,68.4 188,63 189.8,63 189.8,68.4 191.1,68.4 191.1,70.1 196,70.1 196,53.1 201.8,53.1 
			201.8,49.6 207.6,49.6 207.6,38.8 213.7,38.8 213.7,53.1 220.1,53.1 220.1,77.5 223.6,77.5 223.6,15 228.2,15 228.2,2 246.7,2 
			246.7,15 246.7,38.8 250.5,38.8 250.5,36 264.5,36 264.5,24 269,24 269,36 269.8,36 269.8,38.8 273.6,38.8 273.6,77.5 280.6,77.5 
			280.6,71.7 284.1,71.7 284.1,40 298.5,40 298.5,71.7 301,71.7 301,46.9 304.5,46.9 304.5,40.1 306.4,40.1 306.4,46.9 311.7,46.9 
			311.7,71.7 313.5,71.7 313.5,74.3 319.1,74.3 319.1,26.1 322.4,26.1 322.4,11.4 334.8,11.4 334.8,18.1 341,18.1 341,26.1 
			346,26.1 346,74.3 346,77.5 354.7,77.5 354.7,64 357.9,64 357.9,54.5 363.7,54.5 363.7,49.8 365.1,49.8 365.1,36 366.7,36 
			366.7,49.8 369.4,49.8 369.4,45 373.2,45 373.2,40 383.4,40 383.4,45 390.2,45 390.2,70.1 398.6,70.1 398.6,41.4 409.7,41.4 
			409.7,28.4 417.7,28.4 417.7,66.5 425.4,66.5 425.4,57.6 427.5,57.6 427.5,43.8 444.3,43.8 444.3,52.7 448.8,52.7 448.8,57.6 
			454.1,57.6 454.1,77.5 457.1,77.5 457.1,61.7 462.2,61.7 462.2,30.9 469.6,30.9 469.6,22.3 479.3,22.3 479.3,30.9 484.4,30.9 
			484.4,10.5 495.5,10.5 495.5,77.5 499.9,77.5 499.9,115 -0.1,115 -0.1,77.5 		"/>
		<polygon class="st1" points="4.4,89.1 4.4,22 15.4,22 15.4,42.4 20.5,42.4 20.5,33.8 30.2,33.8 30.2,42.4 37.6,42.4 37.6,73.2 
			42.7,73.2 42.7,89.1 45.7,89.1 45.7,69.2 51,69.2 51,64.2 55.6,64.2 55.6,55.3 72.3,55.3 72.3,69.2 74.5,69.2 74.5,78.1 
			82.1,78.1 82.1,39.9 90.2,39.9 90.2,52.9 101.2,52.9 101.2,81.7 109.7,81.7 109.7,56.6 116.5,56.6 116.5,51.6 126.6,51.6 
			126.6,56.6 130.5,56.6 130.5,61.4 133.1,61.4 133.1,47.5 134.7,47.5 134.7,61.4 136.1,61.4 136.1,66 141.9,66 141.9,75.6 
			145.1,75.6 145.1,89.1 153.9,89.1 153.9,85.9 153.9,37.6 158.8,37.6 158.8,29.7 165,29.7 165,23 177.5,23 177.5,37.6 180.7,37.6 
			180.7,85.9 186.3,85.9 186.3,83.3 188.1,83.3 188.1,58.4 193.5,58.4 193.5,51.6 195.4,51.6 195.4,58.4 198.8,58.4 198.8,83.3 
			201.3,83.3 201.3,51.6 215.8,51.6 215.8,83.3 219.2,83.3 219.2,89.1 226.2,89.1 226.2,50.3 230,50.3 230,47.5 230.8,47.5 
			230.8,35.6 235.3,35.6 235.3,47.5 249.3,47.5 249.3,50.3 253.1,50.3 253.1,26.5 253.1,13.5 271.6,13.5 271.6,26.5 276.2,26.5 
			276.2,89.1 279.7,89.1 279.7,64.6 286.1,64.6 286.1,50.3 292.2,50.3 292.2,61.1 298,61.1 298,64.6 303.8,64.6 303.8,81.7 
			308.7,81.7 308.7,79.9 310,79.9 310,74.5 311.8,74.5 311.8,79.9 318.6,79.9 318.6,59.6 322.2,63.1 322.2,79.9 324.4,79.9 
			324.4,69.6 325.1,69.6 325.1,67.7 330.1,67.7 330.1,69.6 335.7,69.6 335.7,73.2 340.7,74.8 340.7,68.5 343.7,68.5 343.7,75.7 
			347.1,76.7 347.1,79.9 351.4,79.9 351.4,89.1 356.5,89.1 356.5,64.3 357.3,64.3 357.3,61.4 360.2,61.4 360.2,64.3 361.1,64.3 
			361.1,62.9 364.7,62.9 364.7,64.3 366.5,64.3 366.5,79.9 368.9,79.9 368.9,57.3 369.5,57.1 369.5,49.7 371.7,49.7 371.7,56.4 
			372.7,56 372.7,52.4 375.1,52.4 375.1,55.2 379,53.9 379,79.9 386.4,79.9 386.4,55.3 389.9,55.9 389.9,35.3 392.1,35.3 
			392.1,31.1 393.1,31.1 393.1,35.3 401.8,35.3 401.8,58.1 404.7,58.7 404.7,43.5 406.2,43.5 406.2,42.4 415.2,42.4 415.2,43.5 
			416.6,43.5 416.6,60.9 429.1,63.1 429.1,89.1 436.5,89.1 436.5,53.9 459.6,53.9 459.6,85 465.6,85 465.6,28.5 467.8,28.5 
			467.8,22.4 467.8,22 470.3,22 470.3,22.4 470.3,28.5 472.5,28.5 472.5,26.5 480.7,26.5 480.7,28.5 482.7,28.5 482.7,89.1 
			499.9,89.1 499.9,115 -0.1,115 -0.1,89.1 		"/>
	</g>
</g>
</svg>
